<mxfile host="app.diagrams.net" modified="2023-06-10T05:51:14.634Z" agent="Mozilla/5.0 (Windows NT 10.0; Win64; x64) AppleWebKit/537.36 (KHTML, like Gecko) Chrome/114.0.0.0 Safari/537.36" version="21.3.8" etag="frbnT_WybUJ2kF43UGP2" type="github">
  <diagram name="第 1 页" id="eRcasZETQaF9I3BJHtCs">
    <mxGraphModel>
      <root>
        <mxCell id="0" />
        <mxCell id="1" parent="0" />
      </root>
    </mxGraphModel>
  </diagram>
</mxfile>
